# xmcd
#
# Track frame offsets: 
#        183
#        10225
#        22320
#        34245
#        45840
#        57705
#        68433
#        77720
#        92270
#        106423
#        116180
#        127978
#        140643
#        151420
#        167238
#        180825
#        194300
#        206923
#        216108
#        228128
#        237915
#        250553
#        262865
#        274985
#        287200
#        299525
#        311733
#
# Disc length: 4315 seconds
#
# Revision: 2
# Processed by: cddbd v1.5.2PL0 Copyright (c) Steve Scherf et al.
# Submitted via: ExactAudioCopyFreeDBPlugin 1.0
#
DISCID=8510d91b
DTITLE=Various Artist - La Música de Mochin Marafioti - Vol. 4
DYEAR=1900
DGENRE=Dance
TTITLE0=Bill Haley y sus cometas - Rock alrededor del reloj
TTITLE1=Chuck Berry - Johnny B Goode
TTITLE2=Brenda Lee - Saltemos el palo de escoba
TTITLE3=Pat Boone - Corre González
TTITLE4=Neil Sedaka - Feliz cumpleaños, dulces 16
TTITLE5=Bryan Hyland - Bikini amarillo
TTITLE6=Perez Prado - Mambo Nº 8
TTITLE7=Hermanas Navarro - Pepe
TTITLE8=Lita Nelson - Palo bonito
TTITLE9=Bobby Capó y Violeta Rivas - Llorando me dormí
TTITLE10=Hermanos Rigual - Cuando calienta el sol
TTITLE11=Antoniop Prieto - La novia
TTITLE12=Rita Pavoni - Corazón
TTITLE13=Gino Paoli - Sabor de sal
TTITLE14=Nada - Hace frío
TTITLE15=Los gatos - La balsa
TTITLE16=Joven Guardia - El extraño de pelo largo
TTITLE17=Palito Ortega - Changuito cañero
TTITLE18=Juan Ramón - Muñeca de cera
TTITLE19=Los TNT - Esso
TTITLE20=Bárbara y Dick - El funeral del labrador
TTITLE21=The Torrens - El león duerme esta noche
TTITLE22=The mamas y The papas - California somnolienta
TTITLE23=Brenda Lee - Lo siento
TTITLE24=Patsy Cline - Loca
TTITLE25=José Feliciano - La copa rota
TTITLE26=Armando Manzanero - Esta tarde vi llover
EXTD=
EXTT0=
EXTT1=
EXTT2=
EXTT3=
EXTT4=
EXTT5=
EXTT6=
EXTT7=
EXTT8=
EXTT9=
EXTT10=
EXTT11=
EXTT12=
EXTT13=
EXTT14=
EXTT15=
EXTT16=
EXTT17=
EXTT18=
EXTT19=
EXTT20=
EXTT21=
EXTT22=
EXTT23=
EXTT24=
EXTT25=
EXTT26=
PLAYORDER=
